<svg 
    width="24"
    height="24"
    viewBox="0 0 24 24"
    xmlns="http://www.w3.org/2000/svg"
    fill="none"
    stroke="currentColor"
    stroke-width="2"
    stroke-linecap="round"
    stroke-linejoin="round">
    <path d="M12 20c-2.8 0-5-2.3-5-5v-2.3c0-2.8 2.3-5 5-5 2.8 0 5 2.3 5 5V15c.1 2.7-2.2 5-5 5z"/>
    <path d="M12.3 7.7h-.5c-1 0-1.8-.8-1.8-1.8s.8-1.8 1.8-1.8h.5c1 0 1.8.8 1.8 1.8 0 .9-.8 1.8-1.8 1.8zM12 13.9V20M15.6 9.1s2.9-2.3 2.9-5.1M8 9.1S5.1 6.8 5.1 4M6.9 14.8S4 17.1 4 19.9M17.2 14.8s2.9 2.3 2.9 5.1M17.1 12.8l3-.7M7 12.9L4 12"/>
</svg>
